<svg xmlns="http://www.w3.org/2000/svg" width="133" height="72" fill="none"><path fill="#374254" d="M4.83 42H.21l12.894-29.736h3.78L29.652 42h-4.704l-3.024-7.308H7.812L4.83 42Zm4.452-10.962h11.13l-5.544-13.944-5.586 13.944Zm30.825 7.812V42h-3.822V10.248h3.948v14.826h.126c.672-.98 1.61-1.806 2.814-2.478 1.204-.7 2.632-1.05 4.284-1.05 1.484 0 2.828.266 4.032.798a9.07 9.07 0 0 1 3.15 2.226 9.796 9.796 0 0 1 2.058 3.36c.476 1.26.714 2.618.714 4.074s-.238 2.828-.714 4.116c-.476 1.288-1.148 2.408-2.016 3.36a9.56 9.56 0 0 1-3.15 2.268c-1.232.532-2.618.798-4.158.798a9.327 9.327 0 0 1-4.074-.924 7.815 7.815 0 0 1-3.108-2.772h-.084Zm13.23-6.846c0-.924-.14-1.82-.42-2.688a6.858 6.858 0 0 0-1.26-2.31 5.983 5.983 0 0 0-2.1-1.596c-.812-.392-1.764-.588-2.856-.588-1.008 0-1.932.196-2.772.588a6.537 6.537 0 0 0-2.1 1.596 7.691 7.691 0 0 0-1.386 2.31 8.103 8.103 0 0 0-.462 2.73c0 .952.154 1.862.462 2.73a7.691 7.691 0 0 0 1.386 2.31 6.837 6.837 0 0 0 2.1 1.554c.84.392 1.764.588 2.772.588 1.092 0 2.044-.196 2.856-.588.84-.42 1.54-.966 2.1-1.638.56-.672.98-1.442 1.26-2.31.28-.868.42-1.764.42-2.688Zm32.666 0c0 1.54-.28 2.954-.84 4.242a9.899 9.899 0 0 1-2.269 3.36c-.952.924-2.086 1.652-3.401 2.184-1.316.504-2.73.756-4.242.756-1.513 0-2.927-.252-4.243-.756-1.316-.532-2.45-1.26-3.401-2.184a10.775 10.775 0 0 1-2.269-3.36c-.531-1.288-.797-2.702-.797-4.242s.266-2.94.797-4.2a10.277 10.277 0 0 1 2.269-3.318c.951-.924 2.085-1.638 3.401-2.142 1.317-.532 2.73-.798 4.243-.798 1.511 0 2.925.266 4.242.798 1.316.504 2.45 1.218 3.401 2.142a9.467 9.467 0 0 1 2.268 3.318c.56 1.26.84 2.66.84 4.2Zm-4.117 0c0-.952-.153-1.862-.462-2.73a6.411 6.411 0 0 0-1.26-2.268 5.983 5.983 0 0 0-2.1-1.596c-.811-.392-1.75-.588-2.813-.588-1.065 0-2.017.196-2.857.588a6.088 6.088 0 0 0-2.058 1.596c-.56.644-.993 1.4-1.302 2.268a8.837 8.837 0 0 0-.42 2.73c0 .952.14 1.862.42 2.73a7.48 7.48 0 0 0 1.302 2.31 6.088 6.088 0 0 0 2.058 1.596c.84.392 1.792.588 2.856.588 1.064 0 2.002-.196 2.814-.588a5.983 5.983 0 0 0 2.1-1.596c.56-.672.98-1.442 1.26-2.31a8.103 8.103 0 0 0 .462-2.73ZM108.445 42a26.01 26.01 0 0 1-.126-1.68 38.026 38.026 0 0 1-.042-1.596h-.084c-.504 1.064-1.358 1.974-2.562 2.73-1.176.728-2.492 1.092-3.948 1.092-1.288 0-2.408-.21-3.36-.63a6.5 6.5 0 0 1-2.31-1.722 8.205 8.205 0 0 1-1.344-2.604c-.28-.98-.42-2.03-.42-3.15V22.092h3.948v11.004c0 .812.056 1.596.168 2.352a5.88 5.88 0 0 0 .714 1.932 3.76 3.76 0 0 0 1.386 1.344c.588.336 1.344.504 2.268.504 1.596 0 2.884-.588 3.864-1.764.98-1.204 1.47-2.8 1.47-4.788V22.092h3.948v15.624c0 .532.014 1.218.042 2.058.028.84.07 1.582.126 2.226h-3.738Zm23.102-16.674h-5.292V35.7c0 1.204.224 2.072.672 2.604.448.504 1.162.756 2.142.756.364 0 .756-.042 1.176-.126.42-.084.798-.21 1.134-.378l.126 3.234a8.344 8.344 0 0 1-1.596.378 8.98 8.98 0 0 1-1.764.168c-1.876 0-3.318-.518-4.326-1.554-.98-1.036-1.47-2.59-1.47-4.662V25.326h-3.822v-3.234h3.822V16.38h3.906v5.712h5.292v3.234Z"/><path fill="#0E1424" d="M38.734 59.678v.546c0 .098-.014.112-.112.112-.084 0-.448-.028-1.666-.028h-.392a13.795 13.795 0 0 0 1.932 2.702 2.522 2.522 0 0 0-.35.56c-.056.112-.084.168-.14.168-.028 0-.084-.056-.14-.14-.504-.7-1.05-1.582-1.568-2.716.014 3.71.112 6.804.112 7.014 0 .098-.014.112-.112.112h-.7c-.098 0-.112-.014-.112-.112 0-.21.112-3.36.126-6.986-.7 1.89-1.372 3.164-2.38 4.564-.07.098-.112.14-.154.14-.056 0-.098-.042-.14-.154a1.947 1.947 0 0 0-.378-.574c1.064-1.246 1.904-2.646 2.744-4.578h-.672c-1.204 0-1.582.028-1.666.028-.098 0-.098-.014-.098-.112v-.546c0-.098 0-.112.098-.112.084 0 .462.028 1.666.028h.91v-2.198a21.33 21.33 0 0 1-1.806.434c-.28.042-.28.042-.406-.196a1.644 1.644 0 0 0-.336-.42c1.652-.252 3.374-.812 4.2-1.204.308-.154.434-.224.63-.406.238.168.448.336.602.49.098.098.126.154.126.238 0 .084-.07.112-.224.126-.168.014-.364.084-.602.182-.406.168-.868.336-1.358.504v2.45h.588c1.218 0 1.582-.028 1.666-.028.098 0 .112.014.112.112Zm3.598 2.52.364-.182c.168-.084.182-.098.238 0 1.064 1.722 1.82 3.402 2.436 5.04.028.098.028.126-.126.196l-.42.182c-.21.098-.224.098-.266-.014l-.49-1.302c-1.834.378-3.556.672-5.656 1.022-.294.042-.448.126-.504.182a.36.36 0 0 1-.21.098c-.07 0-.126-.07-.168-.182a7.034 7.034 0 0 1-.266-.91c.378 0 .798-.028 1.302-.084a72.128 72.128 0 0 0 2.156-8.694c.126-.686.168-1.162.154-1.652.35.056.686.14.952.224.112.042.196.098.196.168 0 .084-.014.126-.07.21-.126.168-.196.35-.266.714a87.358 87.358 0 0 1-2.212 8.918 51.902 51.902 0 0 0 4.298-.714 34.47 34.47 0 0 0-1.54-3.038c-.042-.084-.042-.112.098-.182Zm6.51-5.586c.364.112.728.266.924.378.14.084.196.14.196.224 0 .084-.028.14-.098.238-.126.182-.21.42-.28.742-.392 1.652-.658 3.5-.658 4.83 0 1.022.056 1.708.21 2.408.336-.784.63-1.386 1.036-2.366.098.224.224.392.336.56.042.042.07.098.07.14 0 .084-.028.14-.07.224-.308.714-.602 1.4-.896 2.226a.833.833 0 0 0-.056.35c0 .126.028.21.028.308 0 .056-.028.112-.098.126-.196.07-.434.112-.63.14-.07 0-.126-.056-.154-.14-.392-.938-.63-2.688-.63-4.06 0-1.498.252-3.136.574-4.774.126-.672.196-1.078.196-1.554Zm3.066 7.098.756-.056c.07-.014.098.028.098.14.042 1.064.896 1.54 2.548 1.54.994 0 1.904-.084 2.758-.196.112-.014.14 0 .154.14.014.168.042.462.042.658 0 .126 0 .14-.182.168-.84.098-1.624.154-2.506.154-1.568 0-2.464-.224-3.08-.882-.406-.406-.574-.966-.588-1.666Zm.49-4.494c0-.378 0-.602.014-.77 0-.126.028-.168.168-.196.882-.14 2.226-.252 2.968-.252.812 0 1.61.028 1.988.07.182.014.21.028.21.14 0 .224 0 .448-.014.658 0 .112-.028.14-.154.126-.546-.056-1.456-.07-2.254-.07-.784 0-1.806.098-2.926.294Zm8.736.658c.476-.056 1.162-.196 2.716-.77 1.876-.686 3.598-1.064 4.746-1.064 2.324 0 3.752 1.372 3.752 3.444 0 1.736-.798 2.842-2.296 3.654-1.092.602-2.366.952-3.752 1.19-.196.028-.266-.042-.35-.168a2.087 2.087 0 0 0-.616-.658c1.806-.21 2.968-.574 3.962-1.092 1.274-.658 2.002-1.568 2.002-2.968 0-1.554-1.092-2.548-2.814-2.548-1.288 0-3.01.546-5.264 1.498-.532.224-.826.392-.952.49-.14.098-.21.126-.266.126-.098 0-.168-.056-.266-.168a5.81 5.81 0 0 1-.602-.966Zm14.84-2.436c.392.042.84.168 1.106.294.084.042.126.098.126.154 0 .07-.028.154-.056.252-.056.168-.112.56-.112 1.288 0 .896.014 1.75.196 3.178.21 1.652.812 2.856 1.484 2.856.56 0 1.092-.896 1.498-2.198.154.364.28.532.462.7.112.098.154.21.112.35-.392 1.134-1.148 2.198-2.086 2.198-1.176 0-2.058-1.624-2.366-3.822-.196-1.4-.252-2.982-.252-3.906 0-.532-.014-.868-.112-1.344Zm7.168 1.75c.266-.182.476-.308.616-.378.084-.042.154-.056.21 0 1.428 1.246 2.38 2.968 2.73 4.844.014.098-.028.14-.098.182-.21.14-.406.238-.644.322-.098.028-.168-.014-.182-.112-.392-2.142-1.274-3.626-2.632-4.858Zm13.65-.91-.014-.028c-2.1.336-3.92.63-5.684.994-.504.098-.672.154-.84.238-.098.042-.182.098-.266.098-.084 0-.154-.056-.196-.126a7.751 7.751 0 0 1-.392-.994c.504 0 .868-.042 1.736-.168 2.086-.336 4.928-.756 8.68-1.218.14-.014.21.028.238.112.042.182.084.518.084.7 0 .126-.042.154-.182.168-.756.042-1.316.126-2.044.42-2.044.812-3.612 2.534-3.612 4.41 0 2.324 2.03 3.01 4.074 3.178.182.014.224.042.224.154 0 .154-.042.476-.084.672-.028.154-.07.21-.224.196-2.366-.21-4.914-1.218-4.914-4.046 0-1.974 1.218-3.598 3.416-4.76Z"/><path stroke="#374254" d="M0 60.5h27m78 0h27"/></svg>