<svg xmlns="http://www.w3.org/2000/svg" width="169" height="72" fill="none"><path fill="#374254" d="M29.106 37.38c-1.176 1.596-2.702 2.898-4.578 3.906-1.876.98-4.13 1.47-6.762 1.47-2.268 0-4.368-.378-6.3-1.134-1.904-.784-3.556-1.862-4.956-3.234-1.372-1.4-2.45-3.052-3.234-4.956C2.492 31.5 2.1 29.386 2.1 27.09c0-2.324.392-4.438 1.176-6.342.812-1.932 1.918-3.57 3.318-4.914 1.428-1.372 3.108-2.436 5.04-3.192 1.932-.756 4.032-1.134 6.3-1.134 1.008 0 2.03.098 3.066.294 1.036.196 2.03.49 2.982.882.952.392 1.82.882 2.604 1.47a8.997 8.997 0 0 1 2.016 1.974l-3.276 2.52c-.728-1.008-1.764-1.834-3.108-2.478-1.316-.672-2.744-1.008-4.284-1.008-1.736 0-3.304.322-4.704.966a10.41 10.41 0 0 0-3.528 2.562c-.98 1.092-1.736 2.366-2.268 3.822-.532 1.428-.798 2.954-.798 4.578 0 1.68.252 3.248.756 4.704.532 1.456 1.274 2.73 2.226 3.822a10.687 10.687 0 0 0 3.528 2.52c1.4.616 2.954.924 4.662.924 1.68 0 3.206-.336 4.578-1.008a8.815 8.815 0 0 0 3.402-2.94l3.318 2.268Zm26.64-5.376c0 1.54-.28 2.954-.84 4.242a9.899 9.899 0 0 1-2.268 3.36c-.952.924-2.086 1.652-3.402 2.184-1.316.504-2.73.756-4.242.756s-2.926-.252-4.242-.756c-1.316-.532-2.45-1.26-3.402-2.184a10.775 10.775 0 0 1-2.268-3.36c-.532-1.288-.798-2.702-.798-4.242s.266-2.94.798-4.2c.56-1.288 1.316-2.394 2.268-3.318.952-.924 2.086-1.638 3.402-2.142 1.316-.532 2.73-.798 4.242-.798s2.926.266 4.242.798c1.316.504 2.45 1.218 3.402 2.142a9.467 9.467 0 0 1 2.268 3.318c.56 1.26.84 2.66.84 4.2Zm-4.116 0c0-.952-.154-1.862-.462-2.73a6.411 6.411 0 0 0-1.26-2.268 5.983 5.983 0 0 0-2.1-1.596c-.812-.392-1.75-.588-2.814-.588s-2.016.196-2.856.588a6.088 6.088 0 0 0-2.058 1.596c-.56.644-.994 1.4-1.302 2.268a8.837 8.837 0 0 0-.42 2.73c0 .952.14 1.862.42 2.73a7.48 7.48 0 0 0 1.302 2.31 6.088 6.088 0 0 0 2.058 1.596c.84.392 1.792.588 2.856.588 1.064 0 2.002-.196 2.814-.588a5.983 5.983 0 0 0 2.1-1.596c.56-.672.98-1.442 1.26-2.31a8.103 8.103 0 0 0 .462-2.73Zm16.1-9.912c.057.504.099 1.078.127 1.722.028.616.042 1.134.042 1.554h.126a5.726 5.726 0 0 1 1.008-1.47 7.042 7.042 0 0 1 1.512-1.218 6.929 6.929 0 0 1 1.848-.84 7.462 7.462 0 0 1 2.1-.294c1.288 0 2.394.224 3.318.672a6.5 6.5 0 0 1 2.31 1.722 6.805 6.805 0 0 1 1.344 2.562c.308.98.462 2.03.462 3.15V42h-3.948V30.954c0-.812-.07-1.582-.21-2.31-.112-.728-.336-1.372-.672-1.932a3.758 3.758 0 0 0-1.386-1.344c-.588-.336-1.344-.504-2.268-.504-1.568 0-2.856.602-3.864 1.806-.98 1.176-1.47 2.758-1.47 4.746V42H64.16V26.376c0-.532-.014-1.218-.042-2.058-.028-.84-.07-1.582-.126-2.226h3.738Zm33.56 3.234h-5.292V35.7c0 1.204.224 2.072.672 2.604.448.504 1.162.756 2.142.756.364 0 .756-.042 1.176-.126.42-.084.798-.21 1.134-.378l.126 3.234a8.345 8.345 0 0 1-1.596.378 8.98 8.98 0 0 1-1.764.168c-1.876 0-3.318-.518-4.326-1.554-.98-1.036-1.47-2.59-1.47-4.662V25.326H88.27v-3.234h3.822V16.38h3.906v5.712h5.292v3.234Zm19.408 3.78c0-1.484-.448-2.576-1.344-3.276-.896-.728-2.086-1.092-3.57-1.092-1.12 0-2.184.224-3.192.672-.98.42-1.806.966-2.478 1.638l-2.1-2.52c.98-.924 2.17-1.652 3.57-2.184 1.428-.532 2.954-.798 4.578-.798 1.428 0 2.66.21 3.696.63 1.064.392 1.932.938 2.604 1.638a6.796 6.796 0 0 1 1.512 2.478c.336.952.504 1.974.504 3.066v8.694c0 .672.014 1.386.042 2.142.056.728.14 1.33.252 1.806h-3.57a12.432 12.432 0 0 1-.336-2.856h-.126a7.595 7.595 0 0 1-2.772 2.478c-1.092.588-2.394.882-3.906.882-.784 0-1.61-.112-2.478-.336a6.831 6.831 0 0 1-2.31-1.008 6.026 6.026 0 0 1-1.764-1.89c-.448-.784-.672-1.75-.672-2.898 0-1.512.406-2.702 1.218-3.57.812-.896 1.876-1.568 3.192-2.016 1.316-.476 2.8-.784 4.452-.924 1.652-.14 3.318-.21 4.998-.21v-.546Zm-.966 3.402c-.98 0-2.002.042-3.066.126a14.423 14.423 0 0 0-2.856.504c-.84.252-1.54.63-2.1 1.134-.56.504-.84 1.176-.84 2.016 0 .588.112 1.078.336 1.47.252.392.574.714.966.966s.826.434 1.302.546c.476.084.966.126 1.47.126 1.848 0 3.262-.546 4.242-1.638 1.008-1.12 1.512-2.52 1.512-4.2v-1.05h-.966Zm28.224-5.376c-.42-.644-1.05-1.176-1.89-1.596a5.628 5.628 0 0 0-2.688-.672c-1.036 0-1.96.196-2.772.588a6.213 6.213 0 0 0-2.016 1.596c-.56.644-.994 1.4-1.302 2.268a8.837 8.837 0 0 0-.42 2.73c0 .952.14 1.862.42 2.73a7.48 7.48 0 0 0 1.302 2.31 6.345 6.345 0 0 0 2.058 1.554c.812.392 1.736.588 2.772.588 1.008 0 1.918-.196 2.73-.588.84-.392 1.526-.924 2.058-1.596l2.646 2.394c-.84.98-1.89 1.75-3.15 2.31-1.26.532-2.688.798-4.284.798-1.54 0-2.968-.252-4.284-.756a10.345 10.345 0 0 1-3.36-2.1c-.952-.924-1.708-2.03-2.268-3.318-.532-1.288-.798-2.73-.798-4.326 0-1.568.266-2.996.798-4.284a9.75 9.75 0 0 1 2.226-3.318 9.996 9.996 0 0 1 3.36-2.142c1.316-.504 2.73-.756 4.242-.756 1.4 0 2.786.28 4.158.84 1.4.56 2.506 1.372 3.318 2.436l-2.856 2.31Zm19.494-1.806h-5.292V35.7c0 1.204.224 2.072.672 2.604.448.504 1.162.756 2.142.756.364 0 .756-.042 1.176-.126.42-.084.798-.21 1.134-.378l.126 3.234a8.344 8.344 0 0 1-1.596.378 8.98 8.98 0 0 1-1.764.168c-1.876 0-3.318-.518-4.326-1.554-.98-1.036-1.47-2.59-1.47-4.662V25.326h-3.822v-3.234h3.822V16.38h3.906v5.712h5.292v3.234Z"/><path fill="#0E1424" d="M54.816 59.02c.014-.504.028-.896.028-1.372 0-.602-.042-.994-.112-1.316.434.042.896.126 1.12.21.112.042.168.112.168.21 0 .056-.028.112-.07.182-.07.14-.154.308-.168.714-.028.378-.042.77-.056 1.218.7-.14 1.386-.336 2.058-.588.112-.042.168-.028.182.098.028.196.056.392.056.588 0 .126-.042.14-.154.182-.728.252-1.344.42-2.184.574-.028.91-.028 1.834-.014 2.758 1.33-.644 2.492-1.064 3.654-1.064 1.722 0 2.744 1.064 2.744 2.478 0 1.694-1.148 2.576-2.912 2.576a3.61 3.61 0 0 1-1.12-.168c-.14-.042-.182-.14-.196-.364a1.864 1.864 0 0 0-.224-.644c.518.238 1.036.294 1.498.294 1.12 0 1.974-.56 1.974-1.722 0-1.022-.686-1.694-1.932-1.694-.826 0-1.932.364-3.486 1.176 0 .504.028 1.274.07 2.142.028.658.084 1.106.084 1.33 0 .196-.014.28-.154.322a3.033 3.033 0 0 1-.588.098c-.126 0-.196-.14-.532-.504-.504-.546-1.204-1.036-2.03-1.568-.21.126-.35.224-.476.308-.07.056-.126.098-.196.098-.084 0-.14-.056-.21-.154-.126-.182-.28-.49-.434-.854a6.517 6.517 0 0 0 1.358-.49c.616-.294 1.414-.742 2.268-1.232-.014-.994-.014-2.03-.014-2.996-.938.112-1.582.154-2.562.154-.182 0-.238-.07-.266-.21a3.617 3.617 0 0 1-.084-.658c.854.042 1.82.014 2.912-.112Zm.014 4.718c-.644.364-1.12.672-1.792 1.078.672.392 1.148.686 1.736 1.008.098.056.14.028.14-.098-.028-.602-.042-1.218-.084-1.988Zm4.718-5.124c.098-.21.21-.392.336-.588.056-.098.098-.126.196-.112 1.092.224 2.086.7 2.772 1.47.056.07.056.112 0 .182-.112.168-.294.42-.448.574-.07.07-.126.056-.182 0-.742-.784-1.582-1.302-2.674-1.526Zm17.024-.588v6.356c0 .77.042 1.498.042 2.03 0 .616-.098.854-.364 1.064-.266.224-.616.28-1.736.28-.252 0-.252 0-.322-.266a2.092 2.092 0 0 0-.252-.616c.364.042.686.056 1.064.056.616 0 .742-.112.742-.672v-5.936H73.24c-1.092 0-1.442.028-1.512.028-.112 0-.126-.014-.126-.112 0-.07.028-.336.028-1.204v-1.806c0-.854-.028-1.12-.028-1.204 0-.098.014-.112.126-.112.07 0 .42.028 1.512.028h1.736c1.078 0 1.442-.028 1.512-.028.098 0 .112.014.112.112 0 .084-.028.644-.028 2.002Zm-.826 1.624v-1.218h-3.318v1.218h3.318Zm0-1.89v-1.134h-3.318v1.134h3.318Zm-5.488-.448v1.638c0 .868.028 1.218.028 1.288 0 .098-.014.112-.112.112-.07 0-.42-.028-1.4-.028h-2.45v4.592c0 2.002.028 2.828.028 2.912 0 .098-.014.112-.112.112h-.658c-.098 0-.112-.014-.112-.112 0-.084.028-.91.028-2.912v-5.95c0-2.002-.028-2.856-.028-2.94 0-.098.014-.112.112-.112.084 0 .546.028 1.582.028h1.61c.98 0 1.33-.028 1.4-.028.098 0 .112.014.112.112 0 .084-.028.434-.028 1.288Zm-.798 2.338v-1.218h-3.136v1.218h3.136Zm0-1.89v-1.134h-3.136v1.134h3.136Zm3.808 5.138v1.05c0 1.778.028 2.072.028 2.142 0 .098-.014.112-.112.112h-.588c-.112 0-.126-.014-.126-.112v-.686h-3.024v.938c0 .098-.014.112-.112.112h-.602c-.098 0-.112-.014-.112-.112 0-.07.028-.378.028-2.226v-.98c0-.98-.028-1.302-.028-1.386 0-.098.014-.112.112-.112.084 0 .406.028 1.442.028h1.568c1.022 0 1.358-.028 1.442-.028.098 0 .112.014.112.112 0 .084-.028.406-.028 1.148Zm-.798 1.806v-2.338h-3.024v2.338h3.024Zm7.504-7.266c.392.042.84.168 1.106.294.084.042.126.098.126.154 0 .07-.028.154-.056.252-.056.168-.112.56-.112 1.288 0 .896.014 1.75.196 3.178.21 1.652.812 2.856 1.484 2.856.56 0 1.092-.896 1.498-2.198.154.364.28.532.462.7.112.098.154.21.112.35-.392 1.134-1.148 2.198-2.086 2.198-1.176 0-2.058-1.624-2.366-3.822-.196-1.4-.252-2.982-.252-3.906 0-.532-.014-.868-.112-1.344Zm7.168 1.75c.266-.182.476-.308.616-.378.084-.042.154-.056.21 0 1.428 1.246 2.38 2.968 2.73 4.844.014.098-.028.14-.098.182-.21.14-.406.238-.644.322-.098.028-.168-.014-.182-.112-.392-2.142-1.274-3.626-2.632-4.858Zm15.876 4.858v1.288c0 2.016.028 2.338.028 2.408 0 .098-.014.112-.126.112h-.658c-.098 0-.112-.014-.112-.112v-.574h-6.216v.644c0 .084-.014.098-.112.098h-.672c-.098 0-.112-.014-.112-.098s.028-.406.028-2.436v-1.134c0-1.148-.028-1.498-.028-1.568 0-.098.014-.112.112-.112.084 0 .56.028 1.932.028h3.92c1.372 0 1.848-.028 1.918-.028.112 0 .126.014.126.112 0 .07-.028.42-.028 1.372Zm-.868 2.366v-3.066h-6.216v3.066h6.216Zm-2.604-10.696-.126.112c1.694 2.352 3.85 3.864 6.272 4.76-.154.154-.294.35-.392.56-.07.154-.112.224-.182.224a.496.496 0 0 1-.224-.084 13.623 13.623 0 0 1-5.922-4.816c-1.498 2.184-3.402 3.71-5.698 4.9-.112.056-.168.084-.21.084-.07 0-.098-.056-.182-.196a1.916 1.916 0 0 0-.434-.504c2.716-1.204 4.62-2.968 5.74-4.732.21-.322.294-.504.392-.798.336.056.63.112.868.168.14.042.196.084.196.154 0 .07-.028.112-.098.168Zm2.352 4.368v.602c0 .098-.014.112-.112.112-.07 0-.462-.028-1.638-.028h-2.24c-1.176 0-1.554.028-1.638.028-.098 0-.112-.014-.112-.112v-.602c0-.098.014-.112.112-.112.084 0 .462.028 1.638.028h2.24c1.176 0 1.568-.028 1.638-.028.098 0 .112.014.112.112Zm13.034-.546c.028-.854.028-1.694.028-2.436 0-.448-.028-.784-.126-1.162.518.07.854.126 1.092.21.14.042.182.084.182.182a.397.397 0 0 1-.084.224c-.07.112-.098.294-.112.504-.014.84-.028 1.582-.056 2.394a59.061 59.061 0 0 1 2.884-.182c.112 0 .14.028.14.14.014.196.014.434 0 .616 0 .126-.028.168-.14.168-.966 0-1.89.042-2.926.126-.042.91-.098 1.778-.168 2.31-.14 1.022-.644 1.4-1.47 1.4-.378 0-.7-.042-1.05-.098-.126-.028-.154-.098-.168-.252-.028-.252-.112-.504-.224-.784.49.14.924.224 1.358.224.42 0 .602-.224.672-.798.07-.532.126-1.274.14-1.932-1.316.112-2.716.28-4.004.476-.028 1.484-.042 2.8.028 3.598.098 1.162.462 1.47 2.52 1.47 1.176 0 2.352-.098 3.388-.252.168-.014.21.014.224.126.028.182.042.504.042.658 0 .14-.028.182-.126.196-.812.112-2.128.196-3.388.196-2.702 0-3.374-.546-3.542-2.226-.07-.616-.07-2.142-.07-3.626-.742.112-1.344.21-1.988.35a5.137 5.137 0 0 0-.644.182c-.14.042-.224.014-.28-.112a5.007 5.007 0 0 1-.252-.868c.308 0 .658-.028 1.036-.084.742-.098 1.442-.238 2.128-.35.014-.546.014-1.064.014-1.582-.014-.588-.028-.868-.168-1.372.406.028.826.098 1.106.182.112.028.196.126.196.21 0 .098-.056.196-.084.294-.07.196-.084.364-.098.616-.028.574-.028 1.008-.042 1.526 1.204-.154 2.744-.336 4.032-.462Z"/><path stroke="#374254" d="M4 60.5h40m84 0h40"/></svg>