<svg width="19" height="32" fill="none" xmlns="http://www.w3.org/2000/svg"><path d="M6.628.415C3.102 1.575.88 4.521.88 8.022c0 3.042 1.183 5.191 3.573 6.495.652.363 2.85 1.087 4.83 1.618 3.984 1.039 5.143 1.522 6.11 2.584 1.086 1.135 1.496 2.246 1.617 4.202.266 4.346-2.15 7.34-6.399 7.944-4.347.604-7.39-1.135-8.862-5.12-.362-.94-.604-1.738-.555-1.786.072-.096 3.573-1.545 3.67-1.545.048 0 .145.29.241.652.507 2.1 2.053 3.453 3.912 3.453 3.453 0 4.54-4.902 1.521-6.93-.434-.314-.941-.556-1.11-.556-.507 0-.387.918.145 1.087.241.072.748.483 1.086.869 1.111 1.328.652 3.694-.82 4.322-1.619.652-3.092-.434-3.792-2.8-.217-.798-.507-1.305-.724-1.305-.483 0-4.757 1.715-5.144 2.053-.265.265-.241.507.097 1.593 1.545 4.588 3.694 6.617 7.606 7.1 1.57.193 4.298-.218 5.7-.821 4.804-2.125 6.18-9.587 2.462-13.281-1.135-1.135-2.753-1.835-6.35-2.68-4.903-1.184-6.738-2.391-7.51-4.975-1.039-3.453.603-6.954 3.96-8.5C8.97.391 12.616 1.02 14.524 3.12c.845.942 2.052 3.09 2.052 3.646 0 .17-.772.652-1.69 1.087l-1.69.773-.604-1.184c-.7-1.352-1.666-2.004-3.067-2.004-2.173 0-3.718 2.511-2.873 4.709.265.7 1.425 1.883 1.86 1.883.53 0 .386-.845-.242-1.448-.725-.653-.966-1.618-.652-2.488.917-2.414 3.622-2.052 4.419.604.144.531.434 1.014.603 1.087.17.072 1.425-.387 2.753-1.039 2.39-1.135 2.439-1.183 2.294-1.883-.483-2.367-2.535-5.047-4.636-6.085-1.787-.87-4.42-1.039-6.423-.363Z" fill="#EAEAEA"/></svg>