<svg xmlns="http://www.w3.org/2000/svg" width="161" height="72" fill="none"><path fill="#374254" d="M18.396 17.766c-.588-.812-1.386-1.47-2.394-1.974-1.008-.532-2.142-.798-3.402-.798-.672 0-1.358.098-2.058.294a5.122 5.122 0 0 0-1.848.882 4.795 4.795 0 0 0-1.386 1.512c-.336.588-.504 1.302-.504 2.142 0 .812.154 1.498.462 2.058.336.532.77.994 1.302 1.386.56.364 1.204.686 1.932.966l2.394.798c1.008.308 2.03.658 3.066 1.05a10.98 10.98 0 0 1 2.814 1.554 7.581 7.581 0 0 1 2.058 2.436c.532.952.798 2.17.798 3.654 0 1.54-.294 2.884-.882 4.032a8.26 8.26 0 0 1-2.268 2.814c-.952.728-2.058 1.274-3.318 1.638a13.418 13.418 0 0 1-3.822.546c-1.876 0-3.696-.364-5.46-1.092-1.736-.728-3.178-1.806-4.326-3.234l3.234-2.73c.7 1.036 1.638 1.876 2.814 2.52a7.83 7.83 0 0 0 3.822.966c.7 0 1.4-.098 2.1-.294.7-.196 1.33-.504 1.89-.924a5.045 5.045 0 0 0 1.428-1.554c.364-.644.546-1.414.546-2.31 0-.896-.196-1.638-.588-2.226a4.707 4.707 0 0 0-1.512-1.554c-.644-.42-1.4-.77-2.268-1.05a73.916 73.916 0 0 0-2.688-.924c-.952-.28-1.89-.616-2.814-1.008-.924-.42-1.75-.938-2.478-1.554a7.422 7.422 0 0 1-1.764-2.352c-.448-.924-.672-2.072-.672-3.444 0-1.484.294-2.758.882-3.822a8.566 8.566 0 0 1 2.352-2.646 9.731 9.731 0 0 1 3.276-1.512 13.993 13.993 0 0 1 3.696-.504c1.736 0 3.36.308 4.872.924 1.512.616 2.73 1.442 3.654 2.478l-2.94 2.856Zm26.432 12.516a6.88 6.88 0 0 0-.42-2.184 4.656 4.656 0 0 0-1.05-1.806c-.448-.504-1.022-.896-1.722-1.176-.672-.308-1.47-.462-2.394-.462-.84 0-1.638.154-2.394.462a6.17 6.17 0 0 0-1.932 1.176 6.754 6.754 0 0 0-1.344 1.806 5.75 5.75 0 0 0-.588 2.184h11.844Zm3.99 1.596v.672c0 .224-.014.448-.042.672H32.984c.028.84.21 1.638.546 2.394.364.728.84 1.372 1.428 1.932.588.532 1.26.952 2.016 1.26.784.308 1.61.462 2.478.462 1.344 0 2.506-.294 3.486-.882.98-.588 1.75-1.302 2.31-2.142l2.772 2.226c-1.064 1.4-2.324 2.436-3.78 3.108-1.428.644-3.024.966-4.788.966-1.512 0-2.912-.252-4.2-.756-1.288-.504-2.394-1.204-3.318-2.1-.924-.924-1.652-2.03-2.184-3.318-.532-1.288-.798-2.716-.798-4.284 0-1.54.252-2.954.756-4.242.532-1.316 1.26-2.436 2.184-3.36a9.638 9.638 0 0 1 3.276-2.142c1.26-.532 2.618-.798 4.074-.798s2.772.238 3.948.714c1.204.476 2.212 1.162 3.024 2.058.84.896 1.484 1.988 1.932 3.276.448 1.26.672 2.688.672 4.284Zm8.452-5.502c0-.532-.014-1.218-.042-2.058-.028-.84-.07-1.582-.126-2.226h3.738c.056.504.098 1.092.126 1.764.028.644.042 1.176.042 1.596h.126a6.797 6.797 0 0 1 2.436-2.814c1.092-.728 2.31-1.092 3.654-1.092.616 0 1.134.056 1.554.168l-.168 3.654a7.43 7.43 0 0 0-1.806-.21c-.952 0-1.778.182-2.478.546-.7.336-1.288.798-1.764 1.386a6.141 6.141 0 0 0-1.008 2.058 8.384 8.384 0 0 0-.336 2.394V42H57.27V26.376ZM84.793 42H80.51l-8.106-19.908h4.368l5.838 15.666h.084l5.88-15.666h4.2L84.793 42Zm18.728 0h-3.948V22.092h3.948V42Zm.672-27.09c0 .728-.266 1.33-.798 1.806-.504.476-1.12.714-1.848.714s-1.344-.238-1.848-.714a2.465 2.465 0 0 1-.756-1.806c0-.728.252-1.33.756-1.806.504-.504 1.12-.756 1.848-.756s1.344.252 1.848.756c.532.476.798 1.078.798 1.806Zm23.091 12.222c-.42-.644-1.05-1.176-1.89-1.596a5.628 5.628 0 0 0-2.688-.672c-1.036 0-1.96.196-2.772.588a6.213 6.213 0 0 0-2.016 1.596c-.56.644-.994 1.4-1.302 2.268a8.837 8.837 0 0 0-.42 2.73c0 .952.14 1.862.42 2.73a7.48 7.48 0 0 0 1.302 2.31 6.345 6.345 0 0 0 2.058 1.554c.812.392 1.736.588 2.772.588 1.008 0 1.918-.196 2.73-.588.84-.392 1.526-.924 2.058-1.596l2.646 2.394c-.84.98-1.89 1.75-3.15 2.31-1.26.532-2.688.798-4.284.798-1.54 0-2.968-.252-4.284-.756a10.345 10.345 0 0 1-3.36-2.1c-.952-.924-1.708-2.03-2.268-3.318-.532-1.288-.798-2.73-.798-4.326 0-1.568.266-2.996.798-4.284a9.75 9.75 0 0 1 2.226-3.318 9.996 9.996 0 0 1 3.36-2.142c1.316-.504 2.73-.756 4.242-.756 1.4 0 2.786.28 4.158.84 1.4.56 2.506 1.372 3.318 2.436l-2.856 2.31Zm24.324 3.15a6.88 6.88 0 0 0-.42-2.184 4.656 4.656 0 0 0-1.05-1.806c-.448-.504-1.022-.896-1.722-1.176-.672-.308-1.47-.462-2.394-.462-.84 0-1.638.154-2.394.462a6.17 6.17 0 0 0-1.932 1.176 6.754 6.754 0 0 0-1.344 1.806 5.75 5.75 0 0 0-.588 2.184h11.844Zm3.99 1.596v.672c0 .224-.014.448-.042.672h-15.792c.028.84.21 1.638.546 2.394.364.728.84 1.372 1.428 1.932.588.532 1.26.952 2.016 1.26.784.308 1.61.462 2.478.462 1.344 0 2.506-.294 3.486-.882.98-.588 1.75-1.302 2.31-2.142l2.772 2.226c-1.064 1.4-2.324 2.436-3.78 3.108-1.428.644-3.024.966-4.788.966-1.512 0-2.912-.252-4.2-.756-1.288-.504-2.394-1.204-3.318-2.1-.924-.924-1.652-2.03-2.184-3.318-.532-1.288-.798-2.716-.798-4.284 0-1.54.252-2.954.756-4.242.532-1.316 1.26-2.436 2.184-3.36a9.638 9.638 0 0 1 3.276-2.142c1.26-.532 2.618-.798 4.074-.798s2.772.238 3.948.714c1.204.476 2.212 1.162 3.024 2.058.84.896 1.484 1.988 1.932 3.276.448 1.26.672 2.688.672 4.284Z"/><path fill="#0E1424" d="m53.75 58.362-.014-.028c-2.1.336-3.92.63-5.684.994-.504.098-.672.154-.84.238-.098.042-.182.098-.266.098-.084 0-.154-.056-.196-.126a7.751 7.751 0 0 1-.392-.994c.504 0 .868-.042 1.736-.168 2.086-.336 4.928-.756 8.68-1.218.14-.014.21.028.238.112.042.182.084.518.084.7 0 .126-.042.154-.182.168-.756.042-1.316.126-2.044.42-2.044.812-3.612 2.534-3.612 4.41 0 2.324 2.03 3.01 4.074 3.178.182.014.224.042.224.154 0 .154-.042.476-.084.672-.028.154-.07.21-.224.196-2.366-.21-4.914-1.218-4.914-4.046 0-1.974 1.218-3.598 3.416-4.76Zm1.176 2.324.518-.378c.042-.028.084-.028.14.014.56.392 1.176 1.078 1.582 1.694.042.056.028.112-.028.154l-.406.336c-.07.056-.14.042-.182-.028a6.045 6.045 0 0 0-1.624-1.792Zm1.232-.938.448-.35c.056-.042.098-.056.154-.014.56.434 1.19 1.05 1.596 1.638.042.07.028.112-.042.168l-.378.336c-.056.056-.112.056-.168-.028a6.687 6.687 0 0 0-1.61-1.75ZM65.3 57.97c-.112-.322-.21-.63-.364-1.078-.126-.392-.238-.616-.462-.896.406-.07.826-.098 1.092-.098.14 0 .238.07.238.168 0 .056-.028.14-.028.224 0 .126.028.252.112.588.098.364.182.616.266.91.994-.21 1.974-.434 3.094-.812.084-.028.126-.042.154.056.056.168.098.364.126.518.014.112-.028.168-.126.196-1.036.322-2.016.56-3.01.784.168.504.392 1.036.658 1.582 1.036-.21 1.932-.462 2.786-.798.112-.042.154-.028.196.07.056.182.098.35.126.532.014.098 0 .154-.112.196-.854.28-1.778.532-2.66.728.546 1.022 1.316 2.128 2.184 2.856.084.084.112.126.056.238-.084.196-.21.392-.336.546-.112.126-.182.14-.308.028-.28-.196-.644-.364-.994-.504-.742-.28-1.568-.42-2.674-.42-1.456 0-2.394.42-2.394 1.386 0 1.078 1.316 1.47 3.542 1.47.504 0 .966-.042 1.428-.084.112-.014.126.056.112.154a4.195 4.195 0 0 1-.154.672c-.028.112-.056.154-.182.168-.364.028-.7.056-1.232.056-2.8 0-4.41-.756-4.41-2.366 0-1.372 1.19-2.212 3.234-2.212 1.19 0 2.184.168 2.898.518-.546-.602-1.064-1.372-1.582-2.324-1.414.252-2.744.42-4.046.462-.112 0-.126-.014-.168-.14a3.049 3.049 0 0 1-.126-.658 25.27 25.27 0 0 0 3.99-.42 29.63 29.63 0 0 1-.686-1.582 25.54 25.54 0 0 1-3.682.406c-.112 0-.154-.014-.182-.14a10.645 10.645 0 0 1-.126-.644c1.33-.014 2.73-.182 3.752-.336Zm12.88 3.738.042.042c1.008-.658 2.002-.994 3.01-.994 2.016 0 3.262 1.246 3.262 3.066 0 2.086-1.652 3.598-4.62 3.598-1.68 0-2.436-.756-2.436-1.652 0-.728.644-1.428 1.638-1.428 1.26 0 2.114.812 2.38 2.002 1.204-.392 2.044-1.176 2.044-2.548 0-1.428-1.092-2.296-2.422-2.296-1.386 0-2.772.714-3.85 1.582-.448.35-.812.728-1.232 1.148-.112.112-.182.126-.28.028a6.458 6.458 0 0 1-.518-.56c-.056-.07-.042-.126.056-.21 1.106-.966 1.82-1.68 3.164-3.122.812-.882 1.652-1.778 2.73-3.052-1.162.182-2.254.392-3.5.63-.182.028-.35.07-.49.126a.832.832 0 0 1-.266.07c-.098 0-.168-.056-.224-.168-.126-.252-.224-.518-.336-.966.462.056.854.056 1.232.014a38.751 38.751 0 0 0 3.486-.504c.168-.028.336-.07.434-.126.056-.042.14-.098.196-.098.07 0 .14.028.252.112.266.21.476.42.602.588.07.084.098.168.098.238 0 .112-.07.21-.21.266-.182.056-.336.154-.658.49a267.243 267.243 0 0 1-3.584 3.724Zm2.422 4.83c-.182-.798-.7-1.442-1.498-1.442-.448 0-.854.224-.854.658 0 .462.504.854 1.442.854.308 0 .588-.014.91-.07Zm9.646-4.144c.196.098.42.224.616.336.084.042.098.098.042.182-.182.294-.378.7-.378 1.092 0 1.148 1.288 1.708 3.584 1.708 1.638 0 2.968-.154 4.018-.406.126-.028.168-.014.196.098.042.154.098.504.126.728.014.112-.042.154-.182.182-1.092.224-2.324.364-4.242.364-2.716 0-4.354-.826-4.354-2.632 0-.602.224-1.134.574-1.652Zm.392-5.222c.938.21 2.156.322 3.5.322 1.008 0 2.128-.042 3.094-.126.126-.014.182.028.196.126.028.182.042.378.042.63 0 .154-.056.196-.196.21-1.176.168-2.464.812-3.626 1.596-.126.098-.266.112-.392.028a1.57 1.57 0 0 0-.574-.28 18.35 18.35 0 0 1 2.408-1.4c-.462.042-1.078.056-1.512.056-.91 0-1.988-.07-2.842-.252-.084-.014-.126-.056-.126-.196 0-.182.014-.476.028-.714Zm14.98-1.134c.42.014.854.056 1.148.126.112.028.168.112.168.182 0 .14-.07.266-.07.49.014.308.042.588.084.896.126 1.008.294 1.946.546 2.828.826-.406 1.666-.798 2.492-1.26.448-.252.616-.392.812-.644.28.266.532.532.714.784.112.168.084.364-.168.392-.35.056-.812.252-1.232.448-1.022.476-2.226 1.05-3.178 1.596-1.414.826-2.072 1.554-2.072 2.534 0 1.246 1.176 1.554 3.29 1.54a26.904 26.904 0 0 0 3.598-.294c.126-.014.168.014.196.126.042.224.07.49.084.728.014.126-.042.182-.196.196a31.154 31.154 0 0 1-3.724.196c-2.422 0-4.172-.532-4.172-2.45 0-1.344.952-2.38 2.73-3.458a25.02 25.02 0 0 1-.742-3.584c-.084-.644-.154-.994-.308-1.372Z"/><path stroke="#374254" d="M4 60.618h36.816M118 60.5h36.816"/></svg>