<svg xmlns="http://www.w3.org/2000/svg" width="113" height="72" fill="none"><path fill="#374254" d="M18.396 17.766c-.588-.812-1.386-1.47-2.394-1.974-1.008-.532-2.142-.798-3.402-.798-.672 0-1.358.098-2.058.294a5.122 5.122 0 0 0-1.848.882 4.795 4.795 0 0 0-1.386 1.512c-.336.588-.504 1.302-.504 2.142 0 .812.154 1.498.462 2.058.336.532.77.994 1.302 1.386.56.364 1.204.686 1.932.966l2.394.798c1.008.308 2.03.658 3.066 1.05a10.98 10.98 0 0 1 2.814 1.554 7.581 7.581 0 0 1 2.058 2.436c.532.952.798 2.17.798 3.654 0 1.54-.294 2.884-.882 4.032a8.26 8.26 0 0 1-2.268 2.814c-.952.728-2.058 1.274-3.318 1.638a13.418 13.418 0 0 1-3.822.546c-1.876 0-3.696-.364-5.46-1.092-1.736-.728-3.178-1.806-4.326-3.234l3.234-2.73c.7 1.036 1.638 1.876 2.814 2.52a7.83 7.83 0 0 0 3.822.966c.7 0 1.4-.098 2.1-.294.7-.196 1.33-.504 1.89-.924a5.045 5.045 0 0 0 1.428-1.554c.364-.644.546-1.414.546-2.31 0-.896-.196-1.638-.588-2.226a4.707 4.707 0 0 0-1.512-1.554c-.644-.42-1.4-.77-2.268-1.05a73.916 73.916 0 0 0-2.688-.924c-.952-.28-1.89-.616-2.814-1.008-.924-.42-1.75-.938-2.478-1.554a7.422 7.422 0 0 1-1.764-2.352c-.448-.924-.672-2.072-.672-3.444 0-1.484.294-2.758.882-3.822a8.566 8.566 0 0 1 2.352-2.646 9.731 9.731 0 0 1 3.276-1.512 13.993 13.993 0 0 1 3.696-.504c1.736 0 3.36.308 4.872.924 1.512.616 2.73 1.442 3.654 2.478l-2.94 2.856Zm15.89 12.978h.126l8.358-8.652h5.292l-9.324 9.03L48.86 42H43.4l-8.988-10.332h-.126V42h-3.948V10.248h3.948v20.496ZM59.333 42h-3.948V22.092h3.948V42Zm.672-27.09c0 .728-.267 1.33-.799 1.806-.504.476-1.12.714-1.848.714-.727 0-1.343-.238-1.847-.714a2.465 2.465 0 0 1-.757-1.806c0-.728.253-1.33.757-1.806.503-.504 1.12-.756 1.847-.756.729 0 1.345.252 1.849.756.532.476.797 1.078.797 1.806ZM73.183 42h-3.948V10.248h3.948V42Zm13.85 0h-3.948V10.248h3.948V42Zm20.57-14.868c-.448-.728-1.078-1.316-1.89-1.764-.812-.476-1.722-.714-2.73-.714-.448 0-.896.056-1.344.168a3.55 3.55 0 0 0-1.218.462 2.538 2.538 0 0 0-.84.798c-.196.308-.294.7-.294 1.176 0 .84.378 1.47 1.134 1.89.756.392 1.89.756 3.402 1.092.952.224 1.834.49 2.646.798.812.308 1.512.7 2.1 1.176a4.695 4.695 0 0 1 1.428 1.638c.336.644.504 1.4.504 2.268 0 1.176-.224 2.17-.672 2.982a5.945 5.945 0 0 1-1.806 2.016c-.728.504-1.568.868-2.52 1.092-.952.224-1.932.336-2.94.336-1.512 0-2.996-.294-4.452-.882a8.698 8.698 0 0 1-3.57-2.688l2.814-2.394c.532.784 1.26 1.442 2.184 1.974a6.265 6.265 0 0 0 3.108.798c.504 0 .98-.042 1.428-.126.476-.112.896-.28 1.26-.504.392-.224.7-.518.924-.882.224-.364.336-.826.336-1.386 0-.924-.448-1.61-1.344-2.058-.868-.448-2.156-.868-3.864-1.26a33.088 33.088 0 0 1-2.058-.588 7.382 7.382 0 0 1-1.848-1.008 5.274 5.274 0 0 1-1.386-1.554c-.336-.644-.504-1.428-.504-2.352 0-1.064.21-1.974.63-2.73a5.607 5.607 0 0 1 1.722-1.89 6.928 6.928 0 0 1 2.394-1.092 10.19 10.19 0 0 1 2.772-.378c1.428 0 2.8.28 4.116.84 1.344.56 2.38 1.372 3.108 2.436l-2.73 2.31Z"/><path fill="#0E1424" d="M33.186 63.934v1.4c0 2.114.028 2.464.028 2.534 0 .098-.014.112-.112.112h-.644c-.098 0-.112-.014-.112-.112v-.462h-6.552v.518c0 .098-.014.112-.112.112h-.644c-.098 0-.112-.014-.112-.112 0-.084.028-.42.028-2.562v-1.246c0-1.274-.028-1.624-.028-1.694 0-.098.014-.112.112-.112.084 0 .56.028 1.96.028h1.12l.196-.448c.112-.28.168-.49.224-.812.294.042.63.112.868.196.098.042.14.084.14.14 0 .084-.042.14-.112.196a.684.684 0 0 0-.21.266l-.238.462h2.142c1.4 0 1.89-.028 1.974-.028.098 0 .112.014.112.112 0 .07-.028.42-.028 1.512Zm-.84 2.772v-1.582h-6.552v1.582h6.552Zm0-2.254v-1.414h-6.552v1.414h6.552Zm-3.878-7.462v1.708c0 .588.028 1.162.028 1.498 0 .448-.07.7-.308.868-.21.168-.504.252-1.54.252-.252 0-.252 0-.322-.28a1.708 1.708 0 0 0-.252-.532c.406.042.602.042.952.042.546 0 .63-.14.63-.504v-3.416h-2.912c-1.148 0-1.498.028-1.582.028-.098 0-.112-.014-.112-.126v-.546c0-.098.014-.112.112-.112.084 0 .434.028 1.582.028h2.044c1.162 0 1.526-.028 1.596-.028.098 0 .112.014.112.112 0 .07-.028.322-.028 1.008Zm6.076 0v1.708c0 .588.028 1.162.028 1.498 0 .448-.07.672-.308.868-.224.168-.546.238-1.554.252-.252 0-.252 0-.322-.252a2.06 2.06 0 0 0-.252-.56c.364.028.672.042.938.042.56 0 .658-.14.658-.504v-3.416h-2.884c-1.162 0-1.498.028-1.582.028-.098 0-.112-.014-.112-.126v-.546c0-.098.014-.112.112-.112.084 0 .42.028 1.582.028h2.002c1.148 0 1.54-.028 1.61-.028.098 0 .112.014.112.112 0 .07-.028.322-.028 1.008ZM26.9 59.216c.014.28.014.28-.238.406-.798.406-1.68.826-2.52 1.204-.28.126-.378.224-.462.308-.056.056-.112.084-.168.084-.056 0-.112-.028-.154-.112a6.602 6.602 0 0 1-.336-.784c.378-.07.686-.168.98-.28a23.958 23.958 0 0 0 2.898-1.358c-.014.14-.014.336 0 .532Zm6.09-.126c.028.28.028.28-.238.406-.854.42-1.47.7-2.282 1.064-.294.14-.42.182-.518.28-.056.056-.126.112-.196.112-.056 0-.112-.084-.154-.154a5.177 5.177 0 0 1-.308-.728c.294-.042.658-.14 1.064-.294.714-.266 1.512-.63 2.632-1.218-.014.126-.014.35 0 .532Zm-3.206-1.652.238-.266c.098-.098.14-.084.224-.056a7.707 7.707 0 0 1 1.568.98c.084.07.084.084-.014.21l-.252.322c-.112.154-.154.154-.238.084-.476-.448-.98-.77-1.554-1.064-.098-.042-.098-.056.028-.21Zm-5.95.014.238-.294c.056-.07.112-.084.196-.056a7.463 7.463 0 0 1 1.61.952c.084.07.098.084-.014.224l-.238.294c-.126.154-.154.168-.252.084-.462-.406-1.05-.756-1.582-1.008-.084-.042-.07-.07.042-.196Zm23.8-.084v1.666c0 .868.028 1.176.028 1.246 0 .098-.014.112-.112.112-.084 0-.49-.028-1.694-.028h-2.394c-1.204 0-1.61.028-1.68.028-.098 0-.112-.014-.112-.112 0-.07.028-.378.028-1.246v-1.666c0-.868-.028-1.176-.028-1.26 0-.098.014-.112.112-.112.07 0 .476.028 1.68.028h2.394c1.204 0 1.61-.028 1.694-.028.098 0 .112.014.112.112 0 .084-.028.392-.028 1.26Zm-.798 2.31v-1.162h-4.354v1.162h4.354Zm0-1.82V56.71h-4.354v1.148h4.354Zm2.17 5.488v.56c0 .098-.014.112-.112.112-.07 0-.532-.028-1.862-.028v.952c0 .658.014 1.19.014 1.778 0 .434-.126.728-.392.896-.294.168-.77.21-1.792.21-.266 0-.266 0-.336-.294a1.987 1.987 0 0 0-.28-.602 12.11 12.11 0 0 0 1.498.07c.252-.014.462-.14.462-.504V63.99h-3.962c-1.414 0-1.876.028-1.946.028-.098 0-.112-.014-.112-.112v-.56c0-.098.014-.112.112-.112.07 0 .532.028 1.946.028h3.962v-1.204h-3.822c-1.4 0-1.862.028-1.946.028-.098 0-.112-.014-.112-.112v-.56c0-.098.014-.112.112-.112.084 0 .546.028 1.946.028h4.522c1.414 0 1.89-.028 1.96-.028.098 0 .112.014.112.112v.56c0 .098-.014.112-.112.112-.07 0-.532-.028-1.834-.028v1.204c1.33 0 1.792-.028 1.862-.028.098 0 .112.014.112.112Zm-10.542 2.702v-2.562c0-.532.028-1.218.042-1.75-.406.476-.84.924-1.302 1.33-.098.084-.168.126-.224.126-.056 0-.084-.042-.14-.168-.084-.196-.224-.392-.35-.476a11.489 11.489 0 0 0 2.828-3.444c.112-.21.21-.476.266-.7.266.126.49.266.7.406.098.07.14.126.14.196 0 .084-.028.112-.112.168-.098.056-.224.21-.336.42-.196.35-.434.728-.686 1.106v5.348c0 1.246.028 1.764.028 1.834 0 .098-.014.112-.112.112h-.658c-.098 0-.112-.014-.112-.112 0-.07.028-.588.028-1.834Zm1.848-9.954c0 .07-.056.112-.126.154a1.26 1.26 0 0 0-.35.336 13.493 13.493 0 0 1-2.492 2.59c-.098.07-.154.112-.21.112-.056 0-.098-.056-.182-.196a1.425 1.425 0 0 0-.392-.42c1.036-.658 1.946-1.624 2.548-2.534.182-.266.28-.476.336-.644.28.126.49.252.728.406.098.07.14.112.14.196Zm1.596 8.708.364-.238c.098-.07.14-.07.21-.014.546.462 1.008.938 1.4 1.498.07.098.056.126-.07.21l-.378.266c-.154.112-.182.112-.252.014a7.45 7.45 0 0 0-1.344-1.526c-.084-.07-.084-.112.07-.21Zm9.912-6.524c.266-.168.546-.322.728-.392.098-.042.182-.042.266.056.616.756 1.106 1.61 1.484 2.506.056.126.056.196-.084.266a6.3 6.3 0 0 1-.616.308c-.154.056-.21.014-.28-.14-.392-.938-.826-1.778-1.498-2.604Zm3.486-.868c.238-.126.518-.252.756-.35.112-.042.182-.028.252.056.518.686.994 1.61 1.316 2.492.056.14.042.21-.07.28a4.134 4.134 0 0 1-.63.28c-.154.056-.21.042-.266-.098a10.352 10.352 0 0 0-1.358-2.66Zm5.6-.084c.434.168.882.35 1.176.546.126.084.126.252.014.364-.154.154-.308.378-.588 1.05-.714 1.68-1.47 3.052-2.45 4.326-1.106 1.428-2.338 2.59-3.78 3.528-.154.098-.224.112-.35.028a2.66 2.66 0 0 0-.854-.392c1.736-1.092 3.01-2.24 4.144-3.696a16.028 16.028 0 0 0 2.268-4.046 6.46 6.46 0 0 0 .42-1.708Zm12.18 4.984H67.92c-1.218 0-1.806.14-1.89.14-.126 0-.196-.056-.238-.196a8.276 8.276 0 0 1-.14-1.064c.854.112 1.932.126 3.094.126h4.298c.966 0 2.002-.014 3.066-.042.168-.014.21.014.21.168.014.21.014.504 0 .728 0 .154-.042.182-.21.168-1.05-.028-2.086-.028-3.024-.028Zm12.922-2.702v4.998a18.24 18.24 0 0 0 2.38-1.484c.812-.574 1.652-1.344 2.478-2.338.028.308.098.616.238.882.056.126.07.21-.084.364-.7.714-1.456 1.4-2.212 1.96a26.758 26.758 0 0 1-2.422 1.568c-.266.154-.35.196-.462.308-.126.112-.266.112-.378.014a2.88 2.88 0 0 1-.546-.546c-.084-.126-.056-.224-.028-.35.042-.168.056-.434.056-1.386v-3.976c0-1.344-.042-2.002-.14-2.45.378.042.91.112 1.162.182.21.07.168.21.084.406-.084.196-.126.714-.126 1.848Zm-4.074-1.568c.49.042.924.126 1.162.21.154.056.168.182.098.35-.084.196-.126.532-.14 1.092-.056 1.596-.35 2.8-.868 3.836-.504 1.05-1.176 1.792-2.002 2.492-.154.14-.28.154-.392.056-.21-.168-.448-.266-.742-.35.952-.686 1.75-1.512 2.254-2.604.462-.98.756-2.114.756-3.626 0-.616-.014-.98-.126-1.456Z"/><path stroke="#374254" d="M3 60.5h16m76 0h16"/></svg>