<svg width="1221" height="154" fill="none" xmlns="http://www.w3.org/2000/svg"><path fill-rule="evenodd" clip-rule="evenodd" d="M929.671 93.055H0v-3.49h929.671v3.49Z" fill="#EAEAEA"/><g fill="#EAEAEA"><path d="M929.887 68.326v24.566H927V.768h28.425c16.1 0 29.314 15.226 29.314 33.779 0 18.552-13.214 33.779-29.314 33.779h-25.538Zm25.538-64.487h-25.538v61.416h25.538c14.657 0 26.649-13.819 26.649-30.708 0-16.89-11.992-30.708-26.649-30.708ZM1008.81 49.645c7.44 0 13.55 7.037 13.55 15.61 0 8.572-6.11 15.61-13.55 15.61s-13.547-7.038-13.547-15.61c0-8.573 6.107-15.61 13.547-15.61Zm0 2.559c-6.22 0-11.327 5.886-11.327 13.05 0 7.166 5.107 13.052 11.327 13.052s11.32-5.886 11.32-13.051-5.1-13.051-11.32-13.051ZM1039.35 58.601V80.61h-2.44V56.042c0-1.919-.22-3.838-2.55-3.838-1.89 0-3.45 2.175-4.89 4.094l-1.78-1.663c1.23-1.536 3.33-4.99 6.78-4.99 3.77 0 4.66 2.815 4.88 6.013 3.67-2.815 7.55-5.885 10.88-6.013 3 0 5.67 2.559 5.67 6.27 0 2.558-.89 4.222-2.22 6.14l-1.89 2.304-1.56-1.791 1.67-2.175c1.22-1.664 1.78-2.687 1.78-4.479 0-2.175-1.56-3.71-3.45-3.71-2.33-.128-6.77 3.326-10.88 6.397ZM1068.68 49.9V26.615h2.44V49.9h14.66v2.559h-14.66v19.832c0 3.966 1.78 6.014 5.67 6.014 3.22 0 6.99-4.862 7.44-5.502l1.77 1.791c-.66.896-4.44 6.27-9.44 6.27-4.77 0-7.88-2.687-7.88-7.933V52.46h-7.33V49.9h7.33ZM1097.96 11.26V49.9h17.1v2.56h-17.1V103h-2.45V52.46h-4.88V49.9h4.88V11.26c0-6.142 4.45-11.26 9.78-11.26 5.33 0 9.77 5.118 9.77 11.26v.767h-2.22v-.767c0-4.735-3.45-8.701-7.55-8.701-4.11 0-7.33 3.966-7.33 8.7ZM1135.78 49.645c7.44 0 13.55 7.037 13.55 15.61 0 8.572-6.11 15.61-13.55 15.61s-13.54-7.038-13.54-15.61c0-8.573 6.1-15.61 13.54-15.61Zm0 2.559c-6.21 0-11.32 5.886-11.32 13.05 0 7.166 5.11 13.052 11.32 13.052 6.22 0 11.33-5.886 11.33-13.051s-5.11-13.051-11.33-13.051ZM1161.44.768h2.44v79.84h-2.44V.769ZM1178.57 49.9h2.45V80.61h-2.45V49.9Zm1.23-20.727c1.66 0 2.99 1.535 2.99 3.454 0 1.92-1.33 3.327-2.99 3.327-1.67 0-3-1.407-3-3.327 0-1.919 1.33-3.454 3-3.454ZM1206.7 49.645c7.44 0 13.55 7.037 13.55 15.61 0 8.572-6.11 15.61-13.55 15.61s-13.55-7.038-13.55-15.61c0-8.573 6.11-15.61 13.55-15.61Zm0 2.559c-6.22 0-11.33 5.886-11.33 13.05 0 7.166 5.11 13.052 11.33 13.052s11.33-5.886 11.33-13.051-5.11-13.051-11.33-13.051Z"/></g><g fill="#EAEAEA"><path d="M964.952 136.024c-2.016-1.872-3.936-2.568-6.792-2.568-3.096 0-6.336 1.416-6.336 4.272 0 2.952 3.936 3.936 7.008 3.936 2.736 0 5.736 1.344 5.736 4.224 0 2.976-3 4.656-5.808 4.656-2.352 0-4.464-.888-6.12-2.352l.384-.432c1.56 1.368 3.528 2.208 5.736 2.208 2.616 0 5.232-1.584 5.232-4.08 0-2.352-2.568-3.648-5.16-3.648-3.12 0-7.584-.888-7.584-4.512 0-3.432 3.72-4.848 6.912-4.848 2.952 0 5.112.744 7.176 2.712l-.384.432ZM972.555 144.664a8.308 8.308 0 0 1-.936 1.584c-.744 1.008-1.512 1.872-2.904 1.872-1.008 0-1.8-.912-1.8-1.872 0-1.464.984-2.496 2.472-3.24 1.152-.576 2.496-.768 3.504-.768h.192V148h-.528v-3.336Zm-3.84 2.976c1.152 0 1.776-.672 2.52-1.68.792-1.104 1.296-2.256 1.368-3.216-.696-.048-2.064.216-2.976.696-1.44.744-2.232 1.584-2.232 2.808 0 .72.6 1.392 1.32 1.392ZM980.477 150.016c0 .456.096 1.176-.36 1.68-.456.504-1.224.672-1.728.456v-.504c.408.216.984.024 1.344-.336.264-.24.216-.816.216-1.296v-2.784l-.552.288c-.6.312-1.08.528-1.8.528-.864 0-1.872-.72-1.872-1.728v-4.08h.528v4.08c0 .672.72 1.248 1.344 1.248.624 0 .96-.168 1.56-.48l.792-.408v-4.44h.528v4.176l.624-.336.24.432-.864.456v3.048ZM984.175 142.24v3.672c0 .96.792 1.608 1.848 1.608s1.848-.648 1.848-1.608v-3.672h.528v3.672c0 1.296-1.08 2.136-2.376 2.136-1.296 0-2.376-.84-2.376-2.136v-3.672h.528ZM992.624 143.872V148h-.528v-4.608c0-.36-.048-.72-.552-.72-.408 0-.744.408-1.056.768l-.384-.312c.264-.288.72-.936 1.464-.936.816 0 1.008.528 1.056 1.128.792-.528 1.632-1.104 2.352-1.128.648 0 1.224.48 1.224 1.176 0 .48-.192.792-.48 1.152l-.408.432-.336-.336.36-.408c.264-.312.384-.504.384-.84 0-.408-.336-.696-.744-.696-.504-.024-1.464.624-2.352 1.2ZM998.436 142.24h.528V148h-.528v-5.76Zm.264-3.888c.36 0 .648.288.648.648 0 .36-.288.624-.648.624-.36 0-.648-.264-.648-.624s.288-.648.648-.648ZM1011.78 150.304V133.6h-6.24v-.576h13.1v.576h-6.24v16.704h-.62ZM1025.59 144.664c-.24.528-.55 1.08-.93 1.584-.75 1.008-1.51 1.872-2.91 1.872-1 0-1.8-.912-1.8-1.872 0-1.464.99-2.496 2.48-3.24 1.15-.576 2.49-.768 3.5-.768h.19V148h-.53v-3.336Zm-3.84 2.976c1.16 0 1.78-.672 2.52-1.68.8-1.104 1.3-2.256 1.37-3.216-.69-.048-2.06.216-2.97.696-1.44.744-2.24 1.584-2.24 2.808 0 .72.6 1.392 1.32 1.392ZM1028.76 142.24h.53v.768l.55-.288c.6-.312 1.08-.528 1.8-.528.87 0 1.88.72 1.88 1.728V148h-.53v-4.08c0-.672-.72-1.248-1.35-1.248-.62 0-.96.168-1.56.48l-.79.408V148h-.53v-5.76ZM1036.69 142.24h.52V148h-.52v-5.76Zm.26-3.888c.36 0 .65.288.65.648 0 .36-.29.624-.65.624-.36 0-.65-.264-.65-.624s.29-.648.65-.648ZM1044.35 144.592c0-1.2-.48-1.92-1.27-1.92-.68 0-1.42.696-2.16 1.344V148h-.53v-5.76h.53v1.056c.76-.576 1.36-1.104 2.13-1.104.46 0 1.25.024 1.66 1.248.84-.672 1.53-1.248 2.33-1.248 1.7 0 1.8 1.824 1.8 2.472V148h-.53v-3.36c0-.72-.17-1.968-1.25-1.968-.74 0-1.49.72-2.18 1.344V148h-.53v-3.408ZM1054.39 142.192a2.94 2.94 0 0 1 2.93 2.928 2.94 2.94 0 0 1-2.93 2.928 2.94 2.94 0 0 1-2.93-2.928 2.94 2.94 0 0 1 2.93-2.928Zm0 .48a2.463 2.463 0 0 0-2.45 2.448 2.463 2.463 0 0 0 2.45 2.448c1.34 0 2.45-1.104 2.45-2.448a2.463 2.463 0 0 0-2.45-2.448ZM1060.46 142.24v-4.368h.53v4.368h3.17v.48h-3.17v3.72c0 .744.39 1.128 1.23 1.128.69 0 1.51-.912 1.6-1.032l.39.336c-.15.168-.96 1.176-2.04 1.176-1.03 0-1.71-.504-1.71-1.488v-3.84h-1.58v-.48h1.58ZM1068.64 142.192a2.94 2.94 0 0 1 2.93 2.928 2.94 2.94 0 0 1-2.93 2.928 2.94 2.94 0 0 1-2.93-2.928 2.94 2.94 0 0 1 2.93-2.928Zm0 .48a2.463 2.463 0 0 0-2.45 2.448 2.463 2.463 0 0 0 2.45 2.448c1.34 0 2.45-1.104 2.45-2.448a2.463 2.463 0 0 0-2.45-2.448ZM1079.36 153.64h-.77v-24h.77v24ZM1096.9 146.56l-2.02 3.936h-.34l-8.83-17.304.53-.264 8.47 16.656 1.87-3.648-6.5-12.744.53-.264 6.29 12.36 6.28-12.36.53.264-6.5 12.72 1.87 3.672 8.47-16.656.53.264-8.83 17.304h-.34l-2.01-3.936ZM1109.95 145.36c.14 1.224 1.18 2.208 2.45 2.208.91 0 1.73-.528 2.16-1.296l.38.288a2.925 2.925 0 0 1-2.54 1.488 2.94 2.94 0 0 1-2.93-2.928 2.94 2.94 0 0 1 2.93-2.928 2.94 2.94 0 0 1 2.93 2.928v.24h-5.38Zm4.9-.48c-.15-1.224-1.18-2.208-2.45-2.208-1.27 0-2.31.984-2.45 2.208h4.9ZM1117.94 133.024h.53v9.672a3.452 3.452 0 0 1 1.8-.504c1.8 0 3.27 1.32 3.27 2.928 0 1.608-1.47 2.928-3.27 2.928-1.03 0-1.73-.288-2.33-.888v-14.136Zm.53 10.32v3.6c.48.36 1.11.576 1.8.576 1.51 0 2.74-1.08 2.74-2.4 0-1.32-1.23-2.4-2.74-2.4-.69 0-1.32.24-1.8.624ZM1131.65 150.304v-17.28h6.34c4.77 0 8.64 3.864 8.64 8.64 0 4.776-3.87 8.64-8.64 8.64h-6.34Zm.63-.576h5.71c4.44 0 8.06-3.624 8.06-8.064 0-4.44-3.62-8.064-8.06-8.064h-5.71v16.128ZM1149.39 145.36c.15 1.224 1.18 2.208 2.45 2.208.91 0 1.73-.528 2.16-1.296l.39.288a2.953 2.953 0 0 1-2.55 1.488 2.94 2.94 0 0 1-2.93-2.928 2.94 2.94 0 0 1 2.93-2.928 2.94 2.94 0 0 1 2.93 2.928v.24h-5.38Zm4.9-.48c-.14-1.224-1.18-2.208-2.45-2.208-1.27 0-2.3.984-2.45 2.208h4.9ZM1157.36 147.136c.24.216.58.432.96.432.51 0 .94-.36.94-.792.02-.504-.67-.816-1.25-1.008-.57-.192-1.41-.552-1.41-1.416 0-1.296 1.2-2.136 2.42-2.136.86 0 1.54.36 2.02 1.056l-.39.288c-.43-.6-.91-.864-1.63-.864-1.03 0-1.94.696-1.94 1.656 0 .48.55.792 1.08.984.5.192 1.56.504 1.58 1.44 0 .768-.72 1.272-1.42 1.272-.57 0-1-.312-1.29-.576l.33-.336ZM1163.2 142.24h.53V148h-.53v-5.76Zm.27-3.888c.36 0 .64.288.64.648 0 .36-.28.624-.64.624s-.65-.264-.65-.624.29-.648.65-.648ZM1172.18 148.864c0 1.68-.43 3.384-2.64 3.384-1.39 0-2.35-.648-3.04-1.632l.4-.312c.63.936 1.44 1.464 2.64 1.464 1.71 0 2.12-1.536 2.12-2.904v-4.2c-.24.528-.56 1.08-.94 1.584-.74 1.008-1.51 1.872-2.9 1.872-1.01 0-1.8-.912-1.8-1.872 0-1.464.98-2.496 2.47-3.24 1.15-.576 2.49-.768 3.5-.768h.19v6.624Zm-4.36-1.224c1.15 0 1.77-.672 2.52-1.68.79-1.104 1.29-2.256 1.36-3.216-.69-.048-2.06.216-2.97.696-1.44.744-2.23 1.584-2.23 2.808 0 .72.6 1.392 1.32 1.392ZM1174.83 142.24h.52v.768l.56-.288c.6-.312 1.08-.528 1.8-.528.86 0 1.87.72 1.87 1.728V148h-.53v-4.08c0-.672-.72-1.248-1.34-1.248-.63 0-.96.168-1.56.48l-.8.408V148h-.52v-5.76ZM1182.68 145.36c.14 1.224 1.17 2.208 2.44 2.208.92 0 1.73-.528 2.16-1.296l.39.288a2.953 2.953 0 0 1-2.55 1.488c-1.6 0-2.92-1.32-2.92-2.928a2.938 2.938 0 0 1 2.92-2.928 2.94 2.94 0 0 1 2.93 2.928v.24h-5.37Zm4.89-.48c-.14-1.224-1.17-2.208-2.45-2.208-1.27 0-2.3.984-2.44 2.208h4.89ZM1191.73 143.872V148h-.53v-4.608c0-.36-.05-.72-.55-.72-.41 0-.75.408-1.06.768l-.38-.312c.26-.288.72-.936 1.46-.936.82 0 1.01.528 1.06 1.128.79-.528 1.63-1.104 2.35-1.128.65 0 1.22.48 1.22 1.176 0 .48-.19.792-.48 1.152l-.41.432-.33-.336.36-.408c.26-.312.38-.504.38-.84 0-.408-.33-.696-.74-.696-.51-.024-1.47.624-2.35 1.2Z"/></g><path d="M1179.55 29.173c1.67 0 3 1.535 3 3.454 0 1.92-1.33 3.327-3 3.327s-3-1.407-3-3.327c0-1.919 1.33-3.454 3-3.454Z" fill="gold"/></svg>