<svg xmlns="http://www.w3.org/2000/svg" width="134" height="71" fill="none"><path fill="#374254" d="M11.466 35.952h.084l6.972-23.688H23.1l6.93 23.688h.084l6.552-23.688h4.41L32.34 42h-4.326L20.79 18.102h-.084L13.482 42H9.156L.42 12.264h4.494l6.552 23.688Zm55.026-3.948c0 1.54-.28 2.954-.84 4.242a9.899 9.899 0 0 1-2.268 3.36c-.952.924-2.086 1.652-3.402 2.184-1.316.504-2.73.756-4.242.756s-2.926-.252-4.242-.756c-1.316-.532-2.45-1.26-3.402-2.184a10.775 10.775 0 0 1-2.268-3.36c-.532-1.288-.798-2.702-.798-4.242s.266-2.94.798-4.2c.56-1.288 1.316-2.394 2.268-3.318.952-.924 2.086-1.638 3.402-2.142 1.316-.532 2.73-.798 4.242-.798s2.926.266 4.242.798c1.316.504 2.45 1.218 3.402 2.142a9.467 9.467 0 0 1 2.268 3.318c.56 1.26.84 2.66.84 4.2Zm-4.116 0c0-.952-.154-1.862-.462-2.73a6.411 6.411 0 0 0-1.26-2.268 5.983 5.983 0 0 0-2.1-1.596c-.812-.392-1.75-.588-2.814-.588s-2.016.196-2.856.588a6.088 6.088 0 0 0-2.058 1.596c-.56.644-.994 1.4-1.302 2.268a8.837 8.837 0 0 0-.42 2.73c0 .952.14 1.862.42 2.73a7.48 7.48 0 0 0 1.302 2.31 6.088 6.088 0 0 0 2.058 1.596c.84.392 1.792.588 2.856.588 1.064 0 2.002-.196 2.814-.588a5.983 5.983 0 0 0 2.1-1.596c.56-.672.98-1.442 1.26-2.31a8.103 8.103 0 0 0 .462-2.73Zm12.531-5.628c0-.532-.014-1.218-.042-2.058-.028-.84-.07-1.582-.126-2.226h3.738c.056.504.098 1.092.126 1.764.028.644.042 1.176.042 1.596h.126a6.797 6.797 0 0 1 2.436-2.814c1.092-.728 2.31-1.092 3.654-1.092.616 0 1.134.056 1.554.168l-.168 3.654a7.43 7.43 0 0 0-1.806-.21c-.952 0-1.778.182-2.478.546-.7.336-1.288.798-1.764 1.386a6.141 6.141 0 0 0-1.008 2.058 8.384 8.384 0 0 0-.336 2.394V42h-3.948V26.376Zm22.189 4.368h.126l8.358-8.652h5.292l-9.324 9.03L111.67 42h-5.46l-8.988-10.332h-.126V42h-3.948V10.248h3.948v20.496Zm31.562-3.612c-.448-.728-1.078-1.316-1.89-1.764-.812-.476-1.722-.714-2.73-.714-.448 0-.896.056-1.344.168a3.55 3.55 0 0 0-1.218.462 2.538 2.538 0 0 0-.84.798c-.196.308-.294.7-.294 1.176 0 .84.378 1.47 1.134 1.89.756.392 1.89.756 3.402 1.092.952.224 1.834.49 2.646.798.812.308 1.512.7 2.1 1.176a4.695 4.695 0 0 1 1.428 1.638c.336.644.504 1.4.504 2.268 0 1.176-.224 2.17-.672 2.982a5.945 5.945 0 0 1-1.806 2.016c-.728.504-1.568.868-2.52 1.092-.952.224-1.932.336-2.94.336-1.512 0-2.996-.294-4.452-.882a8.698 8.698 0 0 1-3.57-2.688l2.814-2.394c.532.784 1.26 1.442 2.184 1.974a6.265 6.265 0 0 0 3.108.798c.504 0 .98-.042 1.428-.126.476-.112.896-.28 1.26-.504.392-.224.7-.518.924-.882.224-.364.336-.826.336-1.386 0-.924-.448-1.61-1.344-2.058-.868-.448-2.156-.868-3.864-1.26a33.088 33.088 0 0 1-2.058-.588 7.382 7.382 0 0 1-1.848-1.008 5.274 5.274 0 0 1-1.386-1.554c-.336-.644-.504-1.428-.504-2.352 0-1.064.21-1.974.63-2.73a5.607 5.607 0 0 1 1.722-1.89 6.928 6.928 0 0 1 2.394-1.092 10.19 10.19 0 0 1 2.772-.378c1.428 0 2.8.28 4.116.84 1.344.56 2.38 1.372 3.108 2.436l-2.73 2.31Z"/><path fill="#0E1424" d="M54.162 59.112v.56c0 .112-.014.126-.112.126-.084 0-.518-.028-1.862-.028h-1.204v1.512h.868c1.232 0 1.638-.028 1.722-.028.098 0 .112.014.112.112 0 .07-.028.462-.028 1.386v.462c0 .742.014 1.19.014 1.54 0 .392-.042.63-.294.84-.196.154-.476.21-1.134.21-.266 0-.266 0-.322-.266a1.583 1.583 0 0 0-.238-.546c.294.028.49.042.77.042s.406-.098.406-.42v-2.618h-1.876v2.268c0 1.75.028 2.534.028 2.604 0 .098-.014.112-.112.112h-.644c-.098 0-.112-.014-.112-.112 0-.07.028-.84.028-2.59v-2.282h-1.848v2.24c0 .952.028 1.386.028 1.47 0 .084-.014.098-.112.098h-.63c-.098 0-.112-.014-.112-.098s.028-.476.028-1.484v-1.568c0-.91-.028-1.204-.028-1.288 0-.098.014-.112.112-.112.084 0 .49.028 1.722.028h.84V59.77h-1.428c-1.344 0-1.792.028-1.862.028-.098 0-.112-.014-.112-.126v-.56c0-.098.014-.112.112-.112.07 0 .518.028 1.862.028h1.428v-1.666h-1.708c-.182.392-.392.77-.658 1.148-.07.126-.112.182-.168.182-.042 0-.098-.042-.182-.098a1.811 1.811 0 0 0-.504-.238 6.96 6.96 0 0 0 1.302-2.702 4.66 4.66 0 0 0 .07-.518c.28.056.518.126.742.21.126.042.154.07.154.126 0 .056-.042.112-.084.168-.07.084-.098.154-.154.322-.056.21-.126.434-.21.672h1.4v-.756c0-.574-.014-.854-.098-1.26.364.014.644.042.91.084.084.014.154.042.154.112a.516.516 0 0 1-.07.238c-.07.154-.084.378-.084.812v.77h.854c1.106 0 1.47-.028 1.54-.028.084 0 .098.014.098.112v.56c0 .098-.014.112-.098.112-.07 0-.434-.028-1.54-.028h-.854v1.666h1.204c1.344 0 1.778-.028 1.862-.028.098 0 .112.014.112.112Zm3.584 6.146V56.41c0-.826-.014-1.232-.098-1.694.336.014.644.042.924.084.112.014.168.056.168.112 0 .112-.042.168-.084.266-.056.154-.07.42-.07 1.218v6.874c0 .77.014 1.582.014 2.114 0 .602-.098.924-.392 1.134-.336.21-.616.266-1.862.266-.266 0-.266 0-.322-.28a2.822 2.822 0 0 0-.28-.658c.448.056.756.084 1.274.084.546 0 .728-.098.728-.672Zm-2.744-3.85v-3.78c0-.966-.014-1.414-.098-1.89.308.014.616.042.896.07.098.014.154.056.154.112 0 .084-.056.154-.084.238-.056.168-.056.42-.056 1.442v3.808c0 1.218.028 1.722.028 1.806 0 .098-.014.112-.112.112h-.644c-.098 0-.112-.014-.112-.112 0-.084.028-.588.028-1.806Zm18.214-4.312v.588c0 .098-.014.112-.112.112-.07 0-.49-.028-1.778-.028h-2.45v2.086h2.184c.994 0 1.302-.014 1.372-.014.098 0 .112.014.112.098v.588c0 .098-.014.112-.112.112-.07 0-.378-.028-1.372-.028h-2.184v2.128h2.184c1.022 0 1.33-.028 1.414-.028.098 0 .112.014.112.112v.588c0 .098-.014.112-.112.112-.084 0-.392-.028-1.414-.028h-2.184v1.218c0 1.456.028 2.114.028 2.184 0 .084-.014.098-.112.098h-.672c-.098 0-.112-.014-.112-.098s.028-.728.028-2.184v-6.944h-1.148c-.476.924-1.078 1.89-1.736 2.674-.084.112-.126.168-.182.168-.042 0-.084-.056-.154-.168a1.414 1.414 0 0 0-.42-.406c1.19-1.372 2.254-3.374 2.66-4.676.112-.364.168-.7.182-.98.35.084.602.154.854.252.112.042.182.084.182.154 0 .084-.028.14-.112.21-.084.07-.182.252-.294.574-.154.434-.364.924-.602 1.442h4.06c1.288 0 1.708-.028 1.778-.028.098 0 .112.014.112.112ZM62.814 64.67v-3.64c0-.546.014-1.372.028-2.072a13.645 13.645 0 0 1-1.54 1.974c-.084.084-.126.126-.168.126-.042 0-.084-.042-.126-.14-.14-.28-.252-.434-.392-.56 1.568-1.568 2.576-3.416 3.164-5.096a3.83 3.83 0 0 0 .21-.938c.35.098.616.182.854.294.112.056.154.098.154.168s-.028.112-.112.182c-.084.07-.168.21-.28.532-.28.7-.588 1.4-.952 2.086v7.084c0 1.47.028 2.114.028 2.184 0 .098-.014.112-.098.112h-.686c-.098 0-.112-.014-.112-.112 0-.07.028-.714.028-2.184Zm18.62-7.462h3.682c1.176 0 1.554-.028 1.624-.028.112 0 .14.042.14.14-.014.322-.028.644-.028.952-.028 2.842-.154 4.648-.448 6.468-.224 1.386-.672 2.128-1.792 2.128-.322 0-.798-.028-1.246-.07-.266-.028-.266-.028-.322-.322a2.214 2.214 0 0 0-.21-.63c.644.112 1.148.168 1.652.168.714 0 .98-.63 1.12-1.54.266-1.722.42-3.388.448-6.538h-.728c-.924 3.92-2.352 6.37-5.012 8.316-.098.07-.168.112-.21.112-.056 0-.112-.056-.196-.168a1.632 1.632 0 0 0-.476-.42c2.73-1.848 4.27-4.228 5.082-7.84h-1.358c-.728 2.464-1.68 3.836-3.206 5.11-.098.084-.154.126-.196.126-.056 0-.112-.056-.196-.154a1.452 1.452 0 0 0-.476-.378c1.526-1.092 2.674-2.562 3.262-4.704h-1.288c-.322.546-.7 1.078-1.162 1.624-.098.112-.14.168-.196.168-.056 0-.098-.042-.196-.14a1.288 1.288 0 0 0-.448-.308 9.37 9.37 0 0 0 2.198-3.696c.14-.448.224-.798.252-1.176.322.056.546.112.812.182.098.028.154.07.154.14 0 .084-.042.14-.112.224-.098.112-.168.336-.28.658a12.687 12.687 0 0 1-.644 1.596Zm-1.834.336v.588c0 .098-.014.112-.112.112-.07 0-.364-.028-1.344-.028h-.07v2.87c.476-.238.966-.504 1.498-.826-.014.196-.014.35.014.56.042.28.028.28-.224.42-.42.224-.84.448-1.288.672v2.548c0 1.666.028 2.408.028 2.478 0 .098-.014.098-.112.098h-.644c-.098 0-.112 0-.112-.098 0-.084.028-.812.028-2.464v-2.17c-.406.182-.812.378-1.246.56-.28.126-.406.21-.476.28-.056.056-.14.112-.196.112-.056 0-.112-.028-.154-.112a6.175 6.175 0 0 1-.35-.798c.364-.084.77-.21 1.246-.392.392-.154.784-.308 1.176-.476v-3.262h-1.218c-.098.616-.224 1.246-.406 1.806-.042.154-.056.21-.112.21s-.112-.028-.224-.084a3.385 3.385 0 0 0-.504-.14c.476-1.274.644-2.548.7-3.626.028-.28.014-.532-.014-.784.238.028.546.07.756.112.126.028.168.084.168.126 0 .07-.014.098-.056.182-.042.098-.07.21-.084.378l-.112 1.078h1.106V56.34c0-.994-.014-1.372-.098-1.918.35.014.616.028.896.07.098.014.154.056.154.126 0 .084-.028.14-.056.252-.056.168-.084.518-.084 1.442v1.162h.07c.98 0 1.274-.028 1.344-.028.098 0 .112.014.112.098Z"/><path stroke="#374254" d="M4 59.5h36.816M93 59.5h36.816"/></svg>